<?xml version="1.0"?>
<svg xmlns="http://www.w3.org/2000/svg" xmlns:xlink="http://www.w3.org/1999/xlink" xmlns:svgjs="http://svgjs.com/svgjs" version="1.1" width="512" height="512" x="0" y="0" viewBox="0 0 512 512" style="enable-background:new 0 0 512 512" xml:space="preserve" class=""><g><g xmlns="http://www.w3.org/2000/svg"><path d="m184.996 356.441c-5.695 5.093-14.31 5.087-20.003-.009-3.312-2.966-7.466-4.437-11.616-4.437-4.483 0-8.962 1.717-12.369 5.12-3.296 3.294-5.112 7.677-5.112 12.341 0 4.663 1.816 9.046 5.113 12.34l33.991 33.993 33.987-33.987c3.301-3.299 5.117-7.682 5.117-12.345 0-4.664-1.816-9.047-5.113-12.341-6.553-6.538-17.098-6.838-23.995-.675z" fill="#ffffff" data-original="#000000" style="" class=""/><path d="m305 262h-60v-25c0-19.299-15.701-35-35-35h-70c-19.299 0-35 15.701-35 35v25h-60c-24.813 0-45 20.187-45 45v160c0 24.813 20.187 45 45 45h260c24.813 0 45-20.187 45-45v-160c0-24.813-20.187-45-45-45zm-170-25c0-2.757 2.243-5 5-5h70c2.757 0 5 2.243 5 5v25h-80zm95.196 166.019-44.59 44.589c-2.929 2.929-6.768 4.394-10.606 4.394s-7.678-1.465-10.606-4.394l-44.594-44.594c-8.965-8.957-13.904-20.876-13.904-33.558 0-12.683 4.939-24.602 13.908-33.563 14.877-14.863 37.295-17.872 55.206-8.688 17.899-9.157 40.31-6.15 55.177 8.679 8.979 8.971 13.918 20.89 13.918 33.572-.001 12.682-4.94 24.601-13.909 33.563z" fill="#ffffff" data-original="#000000" style="" class=""/><path d="m422 59h30v53h-30z" fill="#ffffff" data-original="#000000" style="" class=""/><path d="m342 59h30v53h-30z" fill="#ffffff" data-original="#000000" style="" class=""/><path d="m337 30h120c8.284 0 15-6.716 15-15s-6.716-15-15-15h-120c-8.284 0-15 6.716-15 15s6.716 15 15 15z" fill="#ffffff" data-original="#000000" style="" class=""/><path d="m467 142h-140c-24.853 0-45 20.147-45 45v45h23c41.355 0 75 33.645 75 75v165h62v25c0 8.284 6.716 15 15 15s15-6.716 15-15v-25.283c22.499-2.489 40-21.555 40-44.717v-240c0-24.853-20.147-45-45-45z" fill="#ffffff" data-original="#000000" style="" class=""/></g></g></svg>
