<svg width="63" height="50" viewBox="0 0 63 50" fill="none" xmlns="http://www.w3.org/2000/svg">
<path d="M21.056 23.048C23.456 24.104 25.328 25.688 26.672 27.8C28.016 29.912 28.688 32.408 28.688 35.288C28.688 39.416 27.392 42.776 24.8 45.368C22.208 47.864 18.896 49.112 14.864 49.112C10.832 49.112 7.472 47.816 4.784 45.224C2.192 42.632 0.896 39.32 0.896 35.288C0.896 33.368 1.136 31.448 1.616 29.528C2.096 27.608 3.152 24.728 4.784 20.888L13.136 0.151994H27.392L21.056 23.048ZM55.04 23.048C57.44 24.104 59.312 25.688 60.656 27.8C62 29.912 62.672 32.408 62.672 35.288C62.672 39.416 61.376 42.776 58.784 45.368C56.192 47.864 52.88 49.112 48.848 49.112C44.816 49.112 41.456 47.816 38.768 45.224C36.176 42.632 34.88 39.32 34.88 35.288C34.88 33.368 35.12 31.448 35.6 29.528C36.08 27.608 37.136 24.728 38.768 20.888L47.12 0.151994H61.376L55.04 23.048Z" fill="#F8565D"/>
</svg>
